Coordinates	
version=1	
nRows=420	
nColumns=2	
inDegrees=yes	
endheader	
time	elbow_flexion
2.506783163	6.643785737
2.509229895	6.669435136
2.511676627	6.697321337
2.514123359	6.727365349
2.516570091	6.759484034
2.519016823	6.793590481
2.521463555	6.829594396
2.523910287	6.867402481
2.526357019	6.90691883
2.528803751	6.948045307
2.531250483	6.990681933
2.533697215	7.034727252
2.536143947	7.080078699
2.538590679	7.126632947
2.541037411	7.174286251
2.543484143	7.222934765
2.545930875	7.272474851
2.548377607	7.322803369
2.550824339	7.373817947
2.553271072	7.425417232
2.555717804	7.477501128
2.558164536	7.529971003
2.560611268	7.582729892
2.563058	7.635682667
2.565504732	7.688736197
2.567951464	7.741799488
2.570398196	7.794783805
2.572844928	7.847602775
2.57529166	7.900172482
2.577738392	7.952411536
2.580185124	8.004241138
2.582631856	8.055585123
2.585078588	8.106370001
2.58752532	8.156524976
2.589972052	8.205981958
2.592418784	8.254675574
2.594865516	8.302543157
2.597312248	8.349524736
2.59975898	8.395563021
2.602205712	8.44060337
2.604652445	8.484593768
2.607099177	8.527484788
2.609545909	8.569229551
2.611992641	8.60978369
2.614439373	8.649105302
2.616886105	8.687154905
2.619332837	8.723895388
2.621779569	8.759291965
2.624226301	8.793312123
2.626673033	8.825925578
2.629119765	8.85710422
2.631566497	8.886822068
2.634013229	8.915055218
2.636459961	8.941781802
2.638906693	8.966981934
2.641353425	8.990637642
2.643800157	9.012732883
2.646246889	9.033253479
2.648693621	9.052187057
2.651140353	9.069523017
2.653587085	9.085252495
2.656033818	9.099368329
2.65848055	9.111865026
2.660927282	9.12273873
2.663374014	9.131987195
2.665820746	9.139609756
2.668267478	9.145607303
2.67071421	9.149982258
2.673160942	9.152738557
2.675607674	9.153881622
2.678054406	9.153418352
2.680501138	9.151357101
2.68294787	9.147707666
2.685394602	9.142481275
2.687841334	9.135690573
2.690288066	9.127349616
2.692734798	9.11747386
2.69518153	9.10608016
2.697628262	9.093186758
2.700074994	9.078813283
2.702521726	9.062980753
2.704968458	9.045711564
2.707415191	9.027029502
2.709861923	9.006959734
2.712308655	8.985528815
2.714755387	8.962764693
2.717202119	8.93869672
2.719648851	8.913355653
2.722095583	8.886773611
2.724542315	8.85898413
2.726989047	8.830022161
2.729435779	8.79992407
2.731882511	8.768727639
2.734329243	8.73647207
2.736775975	8.703197983
2.739222707	8.66894742
2.741669439	8.633763839
2.744116171	8.597692112
2.746562903	8.560778521
2.749009635	8.523070749
2.751456367	8.484617868
2.753903099	8.445470329
2.756349831	8.405679942
2.758796564	8.365299858
2.761243296	8.324384541
2.763690028	8.282989744
2.76613676	8.241172472
2.768583492	8.198990945
2.771030224	8.156504552
2.773476956	8.113773806
2.775923688	8.070860284
2.77837042	8.027826563
2.780817152	7.984736159
2.783263884	7.941653444
2.785710616	7.898643568
2.788157348	7.855772364
2.79060408	7.813106256
2.793050812	7.770712151
2.795497544	7.728657324
2.797944276	7.687009305
2.800391008	7.645835742
2.80283774	7.605204274
2.805284472	7.565182387
2.807731204	7.52583726
2.810177936	7.487235619
2.812624669	7.449443567
2.815071401	7.412526427
2.817518133	7.37654856
2.819964865	7.341573201
2.822411597	7.307662271
2.824858329	7.274876205
2.827305061	7.243273763
2.829751793	7.212911851
2.832198525	7.183845338
2.834645257	7.156126878
2.837091989	7.12980673
2.839538721	7.104932588
2.841985453	7.08154941
2.844432185	7.059699259
2.846878917	7.039421148
2.849325649	7.020750895
2.851772381	7.003720987
2.854219113	6.988360458
2.856665845	6.974694772
2.859112577	6.962745729
2.861559309	6.952531377
2.864006042	6.944065937
2.866452774	6.937359755
2.868899506	6.932419255
2.871346238	6.929246919
2.87379297	6.927841277
2.876239702	6.928196914
2.878686434	6.930304499
2.881133166	6.934150824
2.883579898	6.939718861
2.88602663	6.946987834
2.888473362	6.955933306
2.890920094	6.966527283
2.893366826	6.978738326
2.895813558	6.992531679
2.89826029	7.007869408
2.900707022	7.02471055
2.903153754	7.043011273
2.905600486	7.062725041
2.908047218	7.083802787
2.91049395	7.106193096
2.912940682	7.129842385
2.915387415	7.154695095
2.917834147	7.180693874
2.920280879	7.207779777
2.922727611	7.235892448
2.925174343	7.264970316
2.927621075	7.294950779
2.930067807	7.325770391
2.932514539	7.357365041
2.934961271	7.389670131
2.937408003	7.422620744
2.939854735	7.456151816
2.942301467	7.490198286
2.944748199	7.524695255
2.947194931	7.559578129
2.949641663	7.594782753
2.952088395	7.630245544
2.954535127	7.665903611
2.956981859	7.701694869
2.959428591	7.737558144
2.961875323	7.773433273
2.964322055	7.809261188
2.966768788	7.844984004
2.96921552	7.880545092
2.971662252	7.915889143
2.974108984	7.950962232
2.976555716	7.985711868
2.979002448	8.020087045
2.98144918	8.054038277
2.983895912	8.087517638
2.986342644	8.120478789
2.988789376	8.152877001
2.991236108	8.184669176
2.99368284	8.215813861
2.996129572	8.246271259
2.998576304	8.276003235
3.001023036	8.304973321
3.003469768	8.333146715
3.0059165	8.360490279
3.008363232	8.386972532
3.010809964	8.412563646
3.013256696	8.437235433
3.015703428	8.460961338
3.01815016	8.483716419
3.020596893	8.505477342
3.023043625	8.526222359
3.025490357	8.545931295
3.027937089	8.564585531
3.030383821	8.582167986
3.032830553	8.5986631
3.035277285	8.614056816
3.037724017	8.628336562
3.040170749	8.641491231
3.042617481	8.653511167
3.045064213	8.664388144
3.047510945	8.674115348
3.049957677	8.682687362
3.052404409	8.69010015
3.054851141	8.696351035
3.057297873	8.701438689
3.059744605	8.705363115
3.062191337	8.70812563
3.064638069	8.709728857
3.067084801	8.710176701
3.069531533	8.709474346
3.071978266	8.707628234
3.074424998	8.704646058
3.07687173	8.700536746
3.079318462	8.695310453
3.081765194	8.688978548
3.084211926	8.681553604
3.086658658	8.673049386
3.08910539	8.663480842
3.091552122	8.652864097
3.093998854	8.641216435
3.096445586	8.628556296
3.098892318	8.614903264
3.10133905	8.600278058
3.103785782	8.58470252
3.106232514	8.568199607
3.108679246	8.550793382
3.111125978	8.532508996
3.11357271	8.513372684
3.116019442	8.493411749
3.118466174	8.47265455
3.120912906	8.451130486
3.123359639	8.428869984
3.125806371	8.405904477
3.128253103	8.382266396
3.130699835	8.357989139
3.133146567	8.333107059
3.135593299	8.307655439
3.138040031	8.281670465
3.140486763	8.255189204
3.142933495	8.228249569
3.145380227	8.200890297
3.147826959	8.173150906
3.150273691	8.145071666
3.152720423	8.116693555
3.155167155	8.088058223
3.157613887	8.059207943
3.160060619	8.030185563
3.162507351	8.00103446
3.164954083	7.971798483
3.167400815	7.942521896
3.169847547	7.913249319
3.172294279	7.884025662
3.174741012	7.85489606
3.177187744	7.825905804
3.179634476	7.797100265
3.182081208	7.768524818
3.18452794	7.740224766
3.186974672	7.712245252
3.189421404	7.68463118
3.191868136	7.657427123
3.194314868	7.630677236
3.1967616	7.604425161
3.199208332	7.578713938
3.201655064	7.553585904
3.204101796	7.529082604
3.206548528	7.505244687
3.20899526	7.482111813
3.211441992	7.459722555
3.213888724	7.438114299
3.216335456	7.417323154
3.218782188	7.397383853
3.22122892	7.378329661
3.223675652	7.360192286
3.226122384	7.34300179
3.228569117	7.326786507
3.231015849	7.311572961
3.233462581	7.297385788
3.235909313	7.28424767
3.238356045	7.272179261
3.240802777	7.261199132
3.243249509	7.251323717
3.245696241	7.242567256
3.248142973	7.234941765
3.250589705	7.228456991
3.253036437	7.223120388
3.255483169	7.218937099
3.257929901	7.215909939
3.260376633	7.21403939
3.262823365	7.213323608
3.265270097	7.213758427
3.267716829	7.215337379
3.270163561	7.218051722
3.272610293	7.221890468
3.275057025	7.226840425
3.277503757	7.232886244
3.27995049	7.240010473
3.282397222	7.248193614
3.284843954	7.25741419
3.287290686	7.267648818
3.289737418	7.278872284
3.29218415	7.291057624
3.294630882	7.30417621
3.297077614	7.318197838
3.299524346	7.333090823
3.301971078	7.348822091
3.30441781	7.365357282
3.306864542	7.382660842
3.309311274	7.400696132
3.311758006	7.419425522
3.314204738	7.438810498
3.31665147	7.458811764
3.319098202	7.47938934
3.321544934	7.500502666
3.323991666	7.522110699
3.326438398	7.544172012
3.32888513	7.566644889
3.331331863	7.589487422
3.333778595	7.612657594
3.336225327	7.636113377
3.338672059	7.65981281
3.341118791	7.683714085
3.343565523	7.707775623
3.346012255	7.731956154
3.348458987	7.756214783
3.350905719	7.780511065
3.353352451	7.804805063
3.355799183	7.829057412
3.358245915	7.85322938
3.360692647	7.877282915
3.363139379	7.901180699
3.365586111	7.924886196
3.368032843	7.948363691
3.370479575	7.971578332
3.372926307	7.994496167
3.375373039	8.017084178
3.377819771	8.039310306
3.380266503	8.061143485
3.382713236	8.082553661
3.385159968	8.103511819
3.3876067	8.123989996
3.390053432	8.143961301
3.392500164	8.16339993
3.394946896	8.182281177
3.397393628	8.200581441
3.39984036	8.218278243
3.402287092	8.235350222
3.404733824	8.251777147
3.407180556	8.267539918
3.409627288	8.282620566
3.41207402	8.297002259
3.414520752	8.310669296
3.416967484	8.323607106
3.419414216	8.335802248
3.421860948	8.347242407
3.42430768	8.357916387
3.426754412	8.367814109
3.429201144	8.376926604
3.431647876	8.385246006
3.434094608	8.392765547
3.436541341	8.399479547
3.438988073	8.405383411
3.441434805	8.410473615
3.443881537	8.414747702
3.446328269	8.418204273
3.448775001	8.420842975
3.451221733	8.422664494
3.453668465	8.423670549
3.456115197	8.423863874
3.458561929	8.423248217
3.461008661	8.421828324
3.463455393	8.419609932
3.465902125	8.416599757
3.468348857	8.412805484
3.470795589	8.408235757
3.473242321	8.402900166
3.475689053	8.396809236
3.478135785	8.389974417
3.480582517	8.382408071
3.483029249	8.374123459
3.485475981	8.365134728
3.487922714	8.355456901
3.490369446	8.345105857
3.492816178	8.334098325
3.49526291	8.322451861
3.497709642	8.310184839
3.500156374	8.29731643
3.502603106	8.283866591
3.505049838	8.269856039
3.50749657	8.255306241
3.509943302	8.240239391
3.512390034	8.224678387
3.514836766	8.208646814
3.517283498	8.19216892
3.51973023	8.175269594
3.522176962	8.157974335
3.524623694	8.140309237
3.527070426	8.12230095
3.529517158	8.103976661
3.53196389	8.085364057
